Coordinates
version=1
nRows=12
nColumns=34
inDegrees=yes

Units are S.I. units (second, meters, Newtons, ...)
If the header above contains a line with 'inDegrees', this indicates whether rotational values are in degrees (yes) or radians (no).

endheader
time	pelvis_tilt	pelvis_list	pelvis_rotation	pelvis_tx	pelvis_ty	pelvis_tz	hip_flexion_r	hip_adduction_r	hip_rotation_r	knee_angle_r	ankle_angle_r	subtalar_angle_r	mtp_angle_r	hip_flexion_l	hip_adduction_l	hip_rotation_l	knee_angle_l	ankle_angle_l	subtalar_angle_l	mtp_angle_l	lumbar_extension	lumbar_bending	lumbar_rotation	arm_flex_r	arm_add_r	arm_rot_r	elbow_flex_r	pro_sup_r	arm_flex_l	arm_add_l	arm_rot_l	elbow_flex_l	pro_sup_l
      1.96666670	     -1.87183623	     -0.56455853	     -1.82665668	     -1.44115227	      0.95810468	     -0.14295120	     -0.46149672	      4.36048986	     -0.54530436	      0.00000000	      2.14754893	     -0.36705469	      0.00000000	     -0.81972401	      3.00481225	     -4.68215035	      0.00000000	      5.70897582	     -0.09504224	      0.00000000	      3.21416508	     -2.73459205	      1.08459230	    139.93661084	    -24.86687146	     37.30237051	     63.98323966	     87.15635127	      7.37557688	     -0.92828751	   -101.56775223	      7.36358045	    119.74817918
      1.98333330	     -1.38188881	     -0.56301397	     -1.94172547	     -1.44022867	      0.95791388	     -0.14291095	     -1.12591090	      4.31968668	     -0.12443482	      0.00000000	      2.10741356	     -0.89163456	      0.00000000	     -1.50844407	      3.02607744	     -4.76498716	      0.00000000	      5.86125058	      0.08714954	      0.00000000	      2.37211523	     -3.05819969	      1.56567780	    143.04106584	    -24.07756998	     36.10045900	     60.33687703	     87.06223440	      7.31047201	     -0.14616090	   -100.03478259	      9.77170724	    119.74817918
      2.00000000	     -1.59796909	     -0.59337801	     -1.92785046	     -1.44105090	      0.95926761	     -0.14276757	     -0.95374118	      4.35093942	     -0.49991642	      0.00000000	      2.18607143	     -0.61226080	      0.00000000	     -1.35952112	      3.00352606	     -4.76864801	      0.00000000	      5.74255574	      0.12794062	      0.00000000	      2.50377747	     -3.20338394	      1.96000910	    146.24899042	    -23.39564048	     36.84308493	     55.86513729	     88.06367894	      5.46632920	     -0.71071330	    -74.24577724	      9.44752623	    119.74817918
      2.01666670	     -1.72341860	     -0.58549750	     -2.01630734	     -1.44297766	      0.96140951	     -0.14190747	     -0.79376387	      4.36446686	     -0.45089452	      0.00000000	      1.79974004	     -0.99749388	      0.00000000	     -1.26587906	      3.01274271	     -4.85763248	      0.00000000	      5.61619781	      0.07100180	      0.00000000	      2.56063704	     -3.45535088	      1.57746155	    147.78425047	    -21.89280600	     34.63856116	     51.57627935	     87.98362444	      4.49455603	     -0.92201206	    -68.55520079	     10.34680702	    119.74817918
      2.03333330	     -1.72657862	     -0.62078413	     -2.02083961	     -1.44339977	      0.96227076	     -0.14081748	     -0.73373096	      4.43554825	     -0.40571502	      0.00000000	      1.36530972	     -1.02671000	      0.00000000	     -1.27478998	      2.95701636	     -4.83762258	      0.00000000	      5.25106277	      0.10772287	      0.00000000	      2.43477216	     -3.66321353	      1.93658999	    150.57763256	    -21.35838682	     35.60249922	     46.81030642	     89.79758846	      4.20875913	     -1.75069529	    -58.74064155	      9.67005015	    119.74817918
      2.05000000	     -1.68923821	     -0.66036221	     -1.98239651	     -1.44067096	      0.96210507	     -0.13978344	     -0.75937731	      4.52200013	     -0.09773883	      0.00000000	      0.62875229	     -1.78067623	      0.00000000	     -1.36759865	      2.87783682	     -4.54563385	      0.00000000	      4.91919343	     -0.26478653	      0.00000000	      2.46545419	     -3.97244649	      1.83056570	    151.95911285	    -20.69973554	     34.82047745	     42.57316884	     89.83641836	      3.99219779	     -2.01840541	    -57.50134037	     10.13956596	    119.74817918
      2.06666670	     -1.21077458	     -0.67457080	     -2.07213637	     -1.43640608	      0.96295957	     -0.13941340	     -1.38766868	      4.52911360	     -0.11876096	      0.00000000	      0.40570034	     -1.60819118	      0.00000000	     -2.03176638	      2.84951008	     -4.58012618	      0.00000000	      5.00906251	     -0.37429748	      0.00000000	      1.80668524	     -4.04882605	      1.40908878	    154.81535496	    -19.15400706	     37.39342744	     35.66518253	     91.06986675	      3.04062158	     -2.42897106	    -50.91420040	     10.70563120	    119.74817918
      2.08333330	     -1.34788498	     -0.72103986	     -2.29103883	     -1.43234754	      0.96339100	     -0.13970080	     -1.46257009	      4.57678136	      0.15541937	      0.00000000	      0.37615432	     -1.31881614	      0.00000000	     -2.09909816	      2.76733976	     -4.52475663	      0.00000000	      5.41416457	     -0.22158332	      0.00000000	      2.37173790	     -4.06183063	      1.47067931	    157.34553988	    -17.96028715	     43.83427870	     28.19696207	     91.52571140	      1.89821100	     -2.95216829	    -42.16112717	     11.17821379	    119.74817918
      2.10000000	     -1.11066395	     -0.81356935	     -2.53716665	     -1.43042439	      0.96352675	     -0.14012644	     -1.98914504	      4.65307336	      0.40149659	      0.00000000	      0.62286526	     -1.24829499	      0.00000000	     -2.55507298	      2.66477775	     -4.69556917	      0.00000000	      5.37056119	     -0.10514234	      0.00000000	      2.22815786	     -3.58556740	      1.83264538	    163.03723202	    -13.94189839	     77.42984085	     13.13457329	     59.17420268	      1.46443660	     -4.36733109	    -19.20245546	      9.49949036	    106.53621588
      2.11666670	     -1.13953457	     -0.85542524	     -2.92659057	     -1.43043758	      0.96246591	     -0.13971252	     -2.17927691	      4.69194563	      0.87751499	      0.00000000	      0.87354853	     -1.38423546	      0.00000000	     -2.70019721	      2.61860830	     -5.03183772	      0.00000000	      6.00076318	      0.39209650	      0.00000000	      2.71201044	     -3.64414586	      0.38190795	    161.72992377	    -11.44895794	     84.06128759	      6.35160298	     60.82090412	     -0.74758731	     -4.27834430	    -19.92602112	     12.10631602	    104.01746048
      2.13333330	     -1.03155918	     -0.92567695	     -3.31936065	     -1.43193208	      0.96113258	     -0.13904284	     -2.41708106	      4.74059497	      1.47191371	      0.00000000	      1.14350606	     -1.21428736	      0.00000000	     -2.90762353	      2.57410345	     -4.79585101	      0.00000000	      6.58587695	      0.28682124	      0.00000000	      2.86376702	     -3.85582198	      0.07035816	    160.91118409	    -11.87353658	     84.47061571	      6.12210437	     60.86930307	     -1.07040994	     -4.23299858	    -19.86225918	     11.88483486	    103.96281145
      2.15000000	     -1.51962357	     -0.83861898	     -3.64952105	     -1.43198158	      0.95897122	     -0.13792151	     -1.94163495	      4.70492978	      1.76543253	      0.00000000	      1.53059293	     -1.48284057	      0.00000000	     -2.40490047	      2.62822141	     -4.91085817	      0.00000000	      6.95321067	      0.23139675	      0.00000000	      4.15461219	     -3.97831339	     -0.89367426	    158.73482952	    -10.21658943	     94.55292105	      1.87799531	     61.50479716	     -2.28154523	     -4.35716477	    -18.21516457	     12.87633347	    101.78466281
